<?xml version="1.0" encoding="UTF-8"?>
<svg xmlns="http://www.w3.org/2000/svg" id="Layer_1" data-name="Layer 1" viewBox="0 0 24 24">
  <path d="M22.702,8.948L15.01,1.154c-1.717-1.542-4.303-1.543-6.042,.021L1.297,8.948c-.836,.849-1.297,1.971-1.297,3.161v8.391c0,1.93,1.57,3.5,3.5,3.5H20.5c1.93,0,3.5-1.57,3.5-3.5V12.109c0-1.19-.461-2.313-1.298-3.161Zm-6.702,14.052H8v-6c0-2.206,1.794-4,4-4s4,1.794,4,4v6Zm7-2.5c0,1.379-1.121,2.5-2.5,2.5h-3.5v-6c0-2.757-2.243-5-5-5s-5,2.243-5,5v6H3.5c-1.378,0-2.5-1.121-2.5-2.5V12.109c0-.926,.358-1.799,1.009-2.458L9.659,1.898c.67-.604,1.511-.903,2.349-.903,.831,0,1.658,.295,2.312,.883l7.671,7.773c.65,.659,1.009,1.532,1.009,2.458v8.391Z"/>
</svg>
