<svg id="Layer_1" viewBox="0 0 24 24" xmlns="http://www.w3.org/2000/svg" data-name="Layer 1"><path d="m9 14.231-6-1.262v-.966l6 1.262zm0-4.966-6-1.262v.966l6 1.262zm0-4-6-1.262v.966l6 1.262zm12-1.246-6 1.246v.966l6-1.246zm-18 12.949 4 .898v-.966l-4-.899v.966zm20.069-16.352c-.592-.495-1.368-.698-2.124-.56l-6.46 1.174c-1.074.196-1.964.851-2.485 1.74-.521-.889-1.412-1.544-2.486-1.74l-6.46-1.174c-.758-.139-1.532.066-2.123.56s-.931 1.219-.931 1.989v19.222l8.911 1.62 3.089.562.943-.171-.791-.832-3.062-.542-8.089-1.471v-18.388c0-.473.208-.918.572-1.221.363-.303.838-.427 1.304-.344l6.46 1.174c1.254.229 2.165 1.319 2.165 2.594v11.143c.075-.063.138-.138.218-.196.243-.176.509-.308.782-.42v-10.527c0-1.275.91-2.366 2.165-2.594l6.46-1.174c.459-.084.939.041 1.304.344.363.303.571.749.571 1.222v12.349l1 .5v-12.85c0-.771-.339-1.496-.931-1.989zm-3.069 11.384c0-1.103-.897-2-2-2s-2 .897-2 2v5.978l-.331-.31c-.735-.737-1.973-.874-2.782-.29-1.051.72-1.182 2.323-.277 3.208l3.248 3.414h1.38l-3.904-4.104s-.007-.004-.011-.007l.002-.002c-.485-.465-.414-1.318.146-1.698.424-.305 1.082-.223 1.501.197l2.027 1.896v-8.282c0-.551.448-1 1-1s1 .449 1 1v4.309l4 2v5.691h1v-6.309l-4-2v-3.691z"/></svg>